<svg width="170" height="37" viewBox="0 0 170 37" fill="none" xmlns="http://www.w3.org/2000/svg">
  <path d="M18.592 6.6L8.224 17.672L18.592 29H14.848L5.472 18.6V29H2.56V6.6H5.472V17.064L14.88 6.6H18.592ZM30.195 14.248H32.947V29.288C32.947 31.624 32.243 33.416 30.963 34.6C29.779 35.624 28.147 36.2 26.131 36.2C24.019 36.2 22.291 35.656 21.139 34.664C20.083 33.768 19.507 32.488 19.475 30.856H22.259C22.387 32.648 23.347 33.864 26.099 33.864C28.595 33.864 30.195 32.456 30.195 29.096V26.344C29.331 28.136 27.571 29.352 25.075 29.352C21.235 29.352 19.475 26.792 19.475 23.048V14.248H22.227V22.472C22.227 25.096 23.091 26.888 26.003 26.888C28.851 26.888 30.195 24.488 30.195 21.832V14.248ZM38.5273 11.24V9H48.7033V11.24H38.5273ZM43.6473 29.384C38.8473 29.384 35.9673 25.928 35.9673 21.64C35.9673 17.32 38.8473 13.864 43.6473 13.864C48.4153 13.864 51.3273 17.32 51.3273 21.64C51.3273 25.928 48.4153 29.384 43.6473 29.384ZM43.6473 26.888C46.7513 26.888 48.5433 24.584 48.5433 21.64C48.5433 18.664 46.7513 16.36 43.6473 16.36C40.5433 16.36 38.7193 18.664 38.7193 21.64C38.7193 24.584 40.5433 26.888 43.6473 26.888ZM54.4213 29V6.6H57.5253L67.6053 24.136V6.6H70.3893V29H67.3173L57.2053 11.464V29H54.4213ZM81.211 29.384C76.411 29.384 73.531 25.928 73.531 21.64C73.531 17.32 76.411 13.864 81.211 13.864C85.979 13.864 88.891 17.32 88.891 21.64C88.891 25.928 85.979 29.384 81.211 29.384ZM81.211 26.888C84.315 26.888 86.107 24.584 86.107 21.64C86.107 18.664 84.315 16.36 81.211 16.36C78.107 16.36 76.283 18.664 76.283 21.64C76.283 24.584 78.107 26.888 81.211 26.888ZM108.017 6.6L97.649 17.672L108.017 29H104.273L94.897 18.6V29H91.985V6.6H94.897V17.064L104.305 6.6H108.017ZM119.62 14.248H122.372V29.288C122.372 31.624 121.668 33.416 120.388 34.6C119.204 35.624 117.572 36.2 115.556 36.2C113.444 36.2 111.716 35.656 110.564 34.664C109.508 33.768 108.932 32.488 108.9 30.856H111.684C111.812 32.648 112.772 33.864 115.524 33.864C118.02 33.864 119.62 32.456 119.62 29.096V26.344C118.756 28.136 116.996 29.352 114.5 29.352C110.66 29.352 108.9 26.792 108.9 23.048V14.248H111.652V22.472C111.652 25.096 112.516 26.888 115.428 26.888C118.276 26.888 119.62 24.488 119.62 21.832V14.248ZM127.952 11.24V9H138.128V11.24H127.952ZM133.072 29.384C128.272 29.384 125.392 25.928 125.392 21.64C125.392 17.32 128.272 13.864 133.072 13.864C137.84 13.864 140.752 17.32 140.752 21.64C140.752 25.928 137.84 29.384 133.072 29.384ZM133.072 26.888C136.176 26.888 137.968 24.584 137.968 21.64C137.968 18.664 136.176 16.36 133.072 16.36C129.968 16.36 128.144 18.664 128.144 21.64C128.144 24.584 129.968 26.888 133.072 26.888ZM149.737 26.696C150.281 26.696 151.177 26.6 151.593 26.504V28.968C151.049 29.096 150.057 29.192 149.097 29.192C147.369 29.192 144.585 28.872 144.585 24.104V16.584H141.929V14.248H144.585V9.576H147.369V14.248H151.081V16.584H147.369V23.496C147.369 26.312 148.329 26.696 149.737 26.696ZM160.636 29.384C155.836 29.384 152.956 25.928 152.956 21.64C152.956 17.32 155.836 13.864 160.636 13.864C165.404 13.864 168.316 17.32 168.316 21.64C168.316 25.928 165.404 29.384 160.636 29.384ZM160.636 26.888C163.74 26.888 165.532 24.584 165.532 21.64C165.532 18.664 163.74 16.36 160.636 16.36C157.532 16.36 155.708 18.664 155.708 21.64C155.708 24.584 157.532 26.888 160.636 26.888Z" fill="#138E00"/>
  <rect x="109" y="9" width="3" height="2.2" fill="#138E00"/>
  <rect x="119.5" y="9" width="3" height="2.2" fill="#138E00"/>
  <rect x="19.5" y="9" width="3" height="2.2" fill="#138E00"/>
  <rect x="30" y="9" width="3" height="2.2" fill="#138E00"/>
</svg>
